<?xml version="1.0" standalone="no"?>
<!DOCTYPE svg PUBLIC "-//W3C//DTD SVG 20010904//EN"
 "http://www.w3.org/TR/2001/REC-SVG-20010904/DTD/svg10.dtd">
<svg version="1.0" xmlns="http://www.w3.org/2000/svg"
 width="512.000000pt" height="512.000000pt" viewBox="0 0 512.000000 512.000000"
 preserveAspectRatio="xMidYMid meet">
<metadata>
Created by potrace 1.14, written by Peter Selinger 2001-2017
</metadata>
<g transform="translate(0.000000,512.000000) scale(0.100000,-0.100000)"
fill="#000000" stroke="none">
<path d="M235 5106 c-95 -30 -162 -88 -204 -176 l-26 -55 0 -2315 0 -2315 26
-55 c34 -70 89 -126 159 -159 l55 -26 2320 0 2320 0 50 27 c68 35 122 92 154
158 l26 55 0 2315 0 2315 -26 55 c-34 72 -90 126 -164 161 l-60 28 -2295 0
c-1826 0 -2303 -3 -2335 -13z m1421 -889 l0 -753 -753 0 -753 -1 0 676 c0 412
4 689 10 710 12 41 54 88 95 107 24 11 165 13 716 14 l685 0 0 -753z m1655
746 c0 -5 1 -70 2 -146 2 -133 3 -140 26 -158 45 -36 105 -18 119 37 4 16 7
84 6 152 l-1 122 676 0 c413 0 690 -4 711 -10 41 -11 94 -61 109 -103 7 -19
11 -254 11 -711 l0 -683 -752 1 -753 1 -1 472 c-1 507 1 494 -52 514 -26 10
-91 -14 -94 -35 -1 -6 -2 -218 -4 -471 -1 -253 -3 -465 -3 -471 -1 -15 -1501
-15 -1502 0 -1 14 -1 1445 0 1474 l1 22 750 0 c413 0 750 -3 751 -7z m-1670
-1652 c14 -1 15 -77 15 -751 0 -524 -3 -750 -10 -751 -15 -1 -1467 -1 -1483 0
-17 1 -19 1497 -3 1503 8 2 1429 2 1481 -1z m1670 -11 c5 -85 2 -1478 -3
-1485 -7 -11 -1477 -13 -1494 -3 -13 9 -10 1488 3 1496 6 4 345 7 752 7 652 0
741 -2 742 -15z m1647 11 c9 -1 12 -158 12 -751 0 -707 -1 -750 -17 -751 -23
-1 -1418 -1 -1459 0 l-31 1 1 750 0 749 20 3 c18 3 1436 1 1474 -1z m-3302
-2128 c1 -498 0 -489 46 -514 24 -13 83 5 94 29 4 9 9 226 10 482 1 256 3 468
3 471 1 7 1501 7 1502 0 1 -8 1 -1461 0 -1484 -1 -16 -42 -17 -753 -15 l-751
3 0 138 c0 130 -2 139 -23 162 -30 33 -73 33 -103 1 -22 -23 -23 -33 -24 -165
l-1 -141 -686 0 c-680 0 -686 0 -725 21 -45 24 -59 40 -80 88 -13 28 -15 134
-15 715 l0 683 753 -1 752 -1 1 -472z m3312 -223 c-3 -777 2 -718 -75 -777
l-36 -28 -697 -3 -696 -2 1 752 c1 414 3 753 3 754 1 0 340 0 752 0 l751 0 -3
-696z"/>
<path d="M820 4698 c-85 -13 -188 -67 -257 -134 -195 -191 -196 -499 -4 -691
268 -267 719 -143 816 224 9 32 15 92 14 133 -7 297 -270 513 -569 468z m225
-177 c74 -35 127 -87 163 -160 35 -73 40 -190 11 -266 -26 -70 -95 -145 -165
-180 -52 -27 -69 -30 -149 -30 -77 0 -98 4 -145 26 -238 115 -261 447 -40 589
98 63 220 71 325 21z"/>
<path d="M2095 4683 c-27 -28 -31 -53 -15 -84 6 -11 92 -101 192 -200 l181
-180 -191 -193 c-206 -207 -212 -217 -171 -270 15 -19 30 -26 54 -26 29 0 53
20 224 190 l191 191 191 -191 c169 -168 195 -190 224 -190 38 0 62 23 71 68 6
31 -1 40 -182 223 -104 104 -191 192 -193 194 -2 2 80 87 182 189 102 102 189
195 192 207 17 54 -48 114 -97 89 -12 -7 -105 -94 -205 -193 -100 -100 -184
-179 -187 -177 -3 3 -88 87 -189 188 -102 100 -191 182 -198 183 -8 0 -22 2
-31 4 -9 2 -29 -8 -43 -22z"/>
<path d="M4125 4698 c-84 -15 -188 -72 -253 -139 -95 -97 -142 -210 -142 -345
0 -211 133 -391 345 -464 76 -26 225 -22 307 7 276 101 401 419 268 683 -57
113 -184 216 -307 249 -56 15 -157 19 -218 9z m204 -163 c186 -65 277 -282
192 -460 -36 -75 -86 -126 -159 -162 -50 -24 -69 -28 -147 -28 -70 0 -100 5
-135 21 -67 31 -132 94 -165 160 -27 52 -30 69 -30 149 0 77 4 98 26 145 76
157 256 233 418 175z"/>
<path d="M454 3038 c-35 -16 -46 -53 -30 -91 8 -18 93 -110 190 -206 97 -96
176 -177 176 -180 0 -4 -79 -85 -176 -181 -184 -183 -212 -221 -193 -264 15
-31 51 -50 82 -42 14 3 108 89 212 192 102 102 188 184 190 182 3 -1 87 -85
188 -185 115 -114 193 -184 211 -189 40 -10 80 22 84 68 3 34 -6 44 -188 227
l-191 191 190 191 c172 172 191 194 191 224 0 24 -7 39 -26 54 -53 42 -64 35
-270 -171 l-193 -191 -180 181 c-100 100 -190 186 -200 192 -24 12 -39 12 -67
-2z"/>
<path d="M3756 3029 c-19 -15 -26 -30 -26 -53 0 -30 20 -54 190 -225 l191
-191 -191 -192 c-182 -182 -191 -193 -188 -226 4 -46 44 -78 85 -68 18 5 94
73 215 193 l187 186 185 -186 c102 -102 195 -188 206 -192 43 -14 90 21 95 70
3 26 -37 73 -199 234 -97 96 -176 177 -176 180 0 4 79 85 176 181 162 162 202
209 199 235 -5 49 -46 82 -88 71 -14 -3 -108 -88 -212 -192 -102 -102 -188
-184 -190 -183 -3 2 -89 88 -193 192 -203 201 -213 207 -266 166z"/>
<path d="M775 1375 c-203 -60 -349 -240 -359 -442 -10 -194 102 -386 271 -465
268 -126 565 -10 674 263 27 69 37 205 19 280 -22 94 -86 201 -160 266 -42 37
-152 90 -212 103 -68 14 -179 11 -233 -5z m265 -162 c194 -88 260 -327 139
-503 -134 -196 -431 -190 -559 10 -67 105 -72 230 -14 339 40 78 97 128 181
162 63 25 188 22 253 -8z"/>
<path d="M2091 1364 c-41 -52 -34 -63 167 -266 103 -104 189 -191 191 -193 2
-2 -80 -88 -182 -189 -102 -102 -188 -195 -192 -206 -9 -29 11 -75 39 -88 46
-21 70 -3 260 187 l187 187 187 -187 c147 -148 194 -188 219 -192 54 -8 99 54
73 102 -6 12 -89 99 -185 195 -96 95 -175 178 -177 184 -2 6 79 93 179 194
199 200 212 221 173 271 -16 20 -30 27 -55 27 -29 0 -53 -20 -224 -190 l-191
-191 -191 191 c-171 170 -195 190 -224 190 -24 0 -39 -7 -54 -26z"/>
<path d="M4079 1371 c-217 -70 -353 -256 -348 -476 4 -213 140 -395 340 -456
126 -38 235 -30 354 26 202 94 315 319 270 537 -26 124 -111 247 -216 314
-110 69 -282 93 -400 55z m284 -164 c217 -107 256 -387 78 -555 -160 -151
-433 -95 -530 108 -21 44 -26 72 -28 140 -1 46 2 89 6 95 5 5 11 22 15 37 9
38 80 124 128 154 65 41 107 52 193 51 65 -2 91 -7 138 -30z"/>
</g>
</svg>
